<mxfile host="Electron" agent="Mozilla/5.0 (Macintosh; Intel Mac OS X 10_15_7) AppleWebKit/537.36 (KHTML, like Gecko) draw.io/28.0.6 Chrome/138.0.7204.100 Electron/37.2.3 Safari/537.36" version="28.0.6">
  <diagram name="ページ1" id="6SxjnCKQFpFwISKEaFQz">
    <mxGraphModel dx="1426" dy="884" grid="1" gridSize="10" guides="1" tooltips="1" connect="1" arrows="1" fold="1" page="1" pageScale="1" pageWidth="1169" pageHeight="827" math="0" shadow="0">
      <root>
        <mxCell id="0" />
        <mxCell id="1" parent="0" />
        <mxCell id="aJeFOu7ZFE4JIJnfJDPP-35" value="" style="rounded=1;whiteSpace=wrap;html=1;" vertex="1" parent="1">
          <mxGeometry x="560" y="180" width="590" height="440" as="geometry" />
        </mxCell>
        <mxCell id="aJeFOu7ZFE4JIJnfJDPP-17" style="edgeStyle=orthogonalEdgeStyle;rounded=0;orthogonalLoop=1;jettySize=auto;html=1;entryX=0;entryY=0.5;entryDx=0;entryDy=0;" edge="1" parent="1" source="aJeFOu7ZFE4JIJnfJDPP-1" target="aJeFOu7ZFE4JIJnfJDPP-16">
          <mxGeometry relative="1" as="geometry" />
        </mxCell>
        <mxCell id="aJeFOu7ZFE4JIJnfJDPP-1" value="Lowerer" style="rounded=1;whiteSpace=wrap;html=1;" vertex="1" parent="1">
          <mxGeometry x="350" y="320" width="120" height="60" as="geometry" />
        </mxCell>
        <mxCell id="aJeFOu7ZFE4JIJnfJDPP-12" style="edgeStyle=orthogonalEdgeStyle;rounded=0;orthogonalLoop=1;jettySize=auto;html=1;" edge="1" parent="1" source="aJeFOu7ZFE4JIJnfJDPP-2" target="aJeFOu7ZFE4JIJnfJDPP-10">
          <mxGeometry relative="1" as="geometry" />
        </mxCell>
        <mxCell id="aJeFOu7ZFE4JIJnfJDPP-2" value="&lt;div&gt;C&lt;/div&gt;Renderer" style="rounded=1;whiteSpace=wrap;html=1;" vertex="1" parent="1">
          <mxGeometry x="605" y="260" width="120" height="60" as="geometry" />
        </mxCell>
        <mxCell id="aJeFOu7ZFE4JIJnfJDPP-14" style="edgeStyle=orthogonalEdgeStyle;rounded=0;orthogonalLoop=1;jettySize=auto;html=1;" edge="1" parent="1" source="aJeFOu7ZFE4JIJnfJDPP-3" target="aJeFOu7ZFE4JIJnfJDPP-11">
          <mxGeometry relative="1" as="geometry" />
        </mxCell>
        <mxCell id="aJeFOu7ZFE4JIJnfJDPP-3" value="CUDA&lt;div&gt;Renderer&lt;/div&gt;" style="rounded=1;whiteSpace=wrap;html=1;" vertex="1" parent="1">
          <mxGeometry x="605" y="390" width="120" height="60" as="geometry" />
        </mxCell>
        <mxCell id="aJeFOu7ZFE4JIJnfJDPP-9" style="edgeStyle=orthogonalEdgeStyle;rounded=0;orthogonalLoop=1;jettySize=auto;html=1;" edge="1" parent="1" source="aJeFOu7ZFE4JIJnfJDPP-4" target="aJeFOu7ZFE4JIJnfJDPP-6">
          <mxGeometry relative="1" as="geometry" />
        </mxCell>
        <mxCell id="aJeFOu7ZFE4JIJnfJDPP-4" value="C&lt;div&gt;Compiler&lt;/div&gt;" style="rounded=1;whiteSpace=wrap;html=1;" vertex="1" parent="1">
          <mxGeometry x="870" y="260" width="120" height="60" as="geometry" />
        </mxCell>
        <mxCell id="aJeFOu7ZFE4JIJnfJDPP-8" style="edgeStyle=orthogonalEdgeStyle;rounded=0;orthogonalLoop=1;jettySize=auto;html=1;" edge="1" parent="1" source="aJeFOu7ZFE4JIJnfJDPP-5" target="aJeFOu7ZFE4JIJnfJDPP-7">
          <mxGeometry relative="1" as="geometry" />
        </mxCell>
        <mxCell id="aJeFOu7ZFE4JIJnfJDPP-5" value="CUDA&lt;div&gt;Compiler&lt;/div&gt;" style="rounded=1;whiteSpace=wrap;html=1;" vertex="1" parent="1">
          <mxGeometry x="870" y="390" width="120" height="60" as="geometry" />
        </mxCell>
        <mxCell id="aJeFOu7ZFE4JIJnfJDPP-6" value="Native&lt;div&gt;Kernel&lt;/div&gt;" style="text;html=1;align=center;verticalAlign=middle;whiteSpace=wrap;rounded=0;" vertex="1" parent="1">
          <mxGeometry x="1050" y="275" width="60" height="30" as="geometry" />
        </mxCell>
        <mxCell id="aJeFOu7ZFE4JIJnfJDPP-7" value="Native&lt;div&gt;Kernel&lt;/div&gt;" style="text;html=1;align=center;verticalAlign=middle;whiteSpace=wrap;rounded=0;" vertex="1" parent="1">
          <mxGeometry x="1050" y="405" width="60" height="30" as="geometry" />
        </mxCell>
        <mxCell id="aJeFOu7ZFE4JIJnfJDPP-13" style="edgeStyle=orthogonalEdgeStyle;rounded=0;orthogonalLoop=1;jettySize=auto;html=1;" edge="1" parent="1" source="aJeFOu7ZFE4JIJnfJDPP-10" target="aJeFOu7ZFE4JIJnfJDPP-4">
          <mxGeometry relative="1" as="geometry" />
        </mxCell>
        <mxCell id="aJeFOu7ZFE4JIJnfJDPP-10" value="C&lt;div&gt;Kernel&lt;/div&gt;&lt;div&gt;Source Code&lt;/div&gt;" style="text;html=1;align=center;verticalAlign=middle;whiteSpace=wrap;rounded=0;" vertex="1" parent="1">
          <mxGeometry x="770" y="275" width="60" height="30" as="geometry" />
        </mxCell>
        <mxCell id="aJeFOu7ZFE4JIJnfJDPP-15" style="edgeStyle=orthogonalEdgeStyle;rounded=0;orthogonalLoop=1;jettySize=auto;html=1;" edge="1" parent="1" source="aJeFOu7ZFE4JIJnfJDPP-11" target="aJeFOu7ZFE4JIJnfJDPP-5">
          <mxGeometry relative="1" as="geometry" />
        </mxCell>
        <mxCell id="aJeFOu7ZFE4JIJnfJDPP-11" value="CUDA&lt;br&gt;&lt;div&gt;Kernel&lt;/div&gt;&lt;div&gt;Source Code&lt;/div&gt;" style="text;html=1;align=center;verticalAlign=middle;whiteSpace=wrap;rounded=0;" vertex="1" parent="1">
          <mxGeometry x="770" y="405" width="60" height="30" as="geometry" />
        </mxCell>
        <mxCell id="aJeFOu7ZFE4JIJnfJDPP-19" style="edgeStyle=orthogonalEdgeStyle;rounded=0;orthogonalLoop=1;jettySize=auto;html=1;entryX=0;entryY=0.5;entryDx=0;entryDy=0;" edge="1" parent="1" source="aJeFOu7ZFE4JIJnfJDPP-16" target="aJeFOu7ZFE4JIJnfJDPP-2">
          <mxGeometry relative="1" as="geometry" />
        </mxCell>
        <mxCell id="aJeFOu7ZFE4JIJnfJDPP-20" style="edgeStyle=orthogonalEdgeStyle;rounded=0;orthogonalLoop=1;jettySize=auto;html=1;entryX=0;entryY=0.5;entryDx=0;entryDy=0;" edge="1" parent="1" source="aJeFOu7ZFE4JIJnfJDPP-16" target="aJeFOu7ZFE4JIJnfJDPP-3">
          <mxGeometry relative="1" as="geometry" />
        </mxCell>
        <mxCell id="aJeFOu7ZFE4JIJnfJDPP-34" style="edgeStyle=orthogonalEdgeStyle;rounded=0;orthogonalLoop=1;jettySize=auto;html=1;entryX=0;entryY=0.5;entryDx=0;entryDy=0;" edge="1" parent="1" source="aJeFOu7ZFE4JIJnfJDPP-16" target="aJeFOu7ZFE4JIJnfJDPP-33">
          <mxGeometry relative="1" as="geometry" />
        </mxCell>
        <mxCell id="aJeFOu7ZFE4JIJnfJDPP-16" value="Abstract&lt;div&gt;Syntax&lt;/div&gt;&lt;div&gt;Tree&lt;/div&gt;" style="text;html=1;align=center;verticalAlign=middle;whiteSpace=wrap;rounded=0;" vertex="1" parent="1">
          <mxGeometry x="500" y="335" width="60" height="30" as="geometry" />
        </mxCell>
        <mxCell id="aJeFOu7ZFE4JIJnfJDPP-23" style="edgeStyle=orthogonalEdgeStyle;rounded=0;orthogonalLoop=1;jettySize=auto;html=1;" edge="1" parent="1" source="aJeFOu7ZFE4JIJnfJDPP-22" target="aJeFOu7ZFE4JIJnfJDPP-1">
          <mxGeometry relative="1" as="geometry" />
        </mxCell>
        <mxCell id="aJeFOu7ZFE4JIJnfJDPP-22" value="Computational&lt;div&gt;Graph&lt;/div&gt;" style="text;html=1;align=center;verticalAlign=middle;whiteSpace=wrap;rounded=0;" vertex="1" parent="1">
          <mxGeometry x="250" y="335" width="60" height="30" as="geometry" />
        </mxCell>
        <mxCell id="aJeFOu7ZFE4JIJnfJDPP-25" style="edgeStyle=orthogonalEdgeStyle;rounded=0;orthogonalLoop=1;jettySize=auto;html=1;" edge="1" parent="1" source="aJeFOu7ZFE4JIJnfJDPP-24" target="aJeFOu7ZFE4JIJnfJDPP-22">
          <mxGeometry relative="1" as="geometry" />
        </mxCell>
        <mxCell id="aJeFOu7ZFE4JIJnfJDPP-24" value="Tensor / Autograd&lt;div&gt;Frontend&lt;/div&gt;" style="rounded=1;whiteSpace=wrap;html=1;" vertex="1" parent="1">
          <mxGeometry x="220" y="200" width="120" height="60" as="geometry" />
        </mxCell>
        <mxCell id="aJeFOu7ZFE4JIJnfJDPP-27" style="edgeStyle=orthogonalEdgeStyle;rounded=0;orthogonalLoop=1;jettySize=auto;html=1;entryX=0.5;entryY=1;entryDx=0;entryDy=0;" edge="1" parent="1" source="aJeFOu7ZFE4JIJnfJDPP-26" target="aJeFOu7ZFE4JIJnfJDPP-22">
          <mxGeometry relative="1" as="geometry" />
        </mxCell>
        <mxCell id="aJeFOu7ZFE4JIJnfJDPP-26" value="&lt;div&gt;Computational Graph&lt;/div&gt;&lt;div&gt;DSL&lt;/div&gt;" style="rounded=1;whiteSpace=wrap;html=1;" vertex="1" parent="1">
          <mxGeometry x="220" y="435" width="120" height="60" as="geometry" />
        </mxCell>
        <mxCell id="aJeFOu7ZFE4JIJnfJDPP-29" style="edgeStyle=orthogonalEdgeStyle;rounded=0;orthogonalLoop=1;jettySize=auto;html=1;" edge="1" parent="1" source="aJeFOu7ZFE4JIJnfJDPP-28" target="aJeFOu7ZFE4JIJnfJDPP-22">
          <mxGeometry relative="1" as="geometry" />
        </mxCell>
        <mxCell id="aJeFOu7ZFE4JIJnfJDPP-28" value="Rust&lt;div&gt;Code&lt;/div&gt;" style="rounded=1;whiteSpace=wrap;html=1;" vertex="1" parent="1">
          <mxGeometry x="70" y="320" width="120" height="60" as="geometry" />
        </mxCell>
        <mxCell id="aJeFOu7ZFE4JIJnfJDPP-32" style="edgeStyle=orthogonalEdgeStyle;rounded=0;orthogonalLoop=1;jettySize=auto;html=1;" edge="1" parent="1" source="aJeFOu7ZFE4JIJnfJDPP-31" target="aJeFOu7ZFE4JIJnfJDPP-24">
          <mxGeometry relative="1" as="geometry" />
        </mxCell>
        <mxCell id="aJeFOu7ZFE4JIJnfJDPP-31" value="Neural&lt;div&gt;Network&lt;/div&gt;&lt;div&gt;Architecture&lt;/div&gt;" style="rounded=1;whiteSpace=wrap;html=1;" vertex="1" parent="1">
          <mxGeometry x="220" y="70" width="120" height="60" as="geometry" />
        </mxCell>
        <mxCell id="aJeFOu7ZFE4JIJnfJDPP-33" value="and, add other language if you need..." style="rounded=1;whiteSpace=wrap;html=1;" vertex="1" parent="1">
          <mxGeometry x="605" y="495" width="120" height="60" as="geometry" />
        </mxCell>
        <mxCell id="aJeFOu7ZFE4JIJnfJDPP-37" value="&lt;font style=&quot;font-size: 24px;&quot;&gt;Backend&lt;/font&gt;" style="text;html=1;align=center;verticalAlign=middle;whiteSpace=wrap;rounded=0;" vertex="1" parent="1">
          <mxGeometry x="620" y="200" width="60" height="30" as="geometry" />
        </mxCell>
      </root>
    </mxGraphModel>
  </diagram>
</mxfile>
